<?xml version="1.0" ?><!DOCTYPE svg  PUBLIC '-//W3C//DTD SVG 1.1//EN'  'http://www.w3.org/Graphics/SVG/1.1/DTD/svg11.dtd'><svg enable-background="new 0 0 24 24" height="24px" id="Layer_1" version="1.1" viewBox="0 0 24 24" width="24px" xml:space="preserve" xmlns="http://www.w3.org/2000/svg" xmlns:xlink="http://www.w3.org/1999/xlink"><g><path d="M12,0C5.4,0,0,5.4,0,12s5.4,12,12,12s12-5.4,12-12S18.6,0,12,0z M12,22C6.5,22,2,17.5,2,12S6.5,2,12,2s10,4.5,10,10   S17.5,22,12,22z"/><circle cx="8.5" cy="9.5" r="1.5"/><circle cx="15.5" cy="9.5" r="1.5"/><path d="M12,14c-2.8,0-5.2,1.6-6.3,4h12.6C17.2,15.6,14.8,14,12,14z M7.6,17c1.1-1.2,2.7-2,4.4-2s3.3,0.8,4.4,2H7.6z"/></g></svg>